<svg xmlns="http://www.w3.org/2000/svg" viewBox="0 0 254.2 56.6"><path fill="none" d="M.046.057h254.2v56.6H.046z"/><g fill="#FF8200"><path d="M25 21.2h-3.3v6.2H25c1 0 1.8-.3 2.3-.9.6-.6.8-1.3.8-2.2 0-.9-.3-1.6-.8-2.2s-1.3-.9-2.3-.9z"/><path d="M0 0v56.6h56.7V0H0zm30 28.6c-1.2 1.1-2.9 1.6-5 1.6h-3.3V37H18V18.2h7c2.1 0 3.8.6 5 1.7 1.2 1.1 1.8 2.6 1.8 4.4s-.6 3.2-1.8 4.3zm7.2 8.6h-3.1V24h3.1v13.2zm-1.6-14.4c-1.2 0-2.2-1-2.2-2.2s1-2.2 2.2-2.2c1.3 0 2.2 1 2.2 2.2s-1 2.2-2.2 2.2z"/></g><path d="M86.8 31.2c-.3 1.9-1.1 3.4-2.3 4.4-1.2 1-2.7 1.5-4.4 1.5-1.1 0-2-.2-2.8-.5s-1.5-.8-2.2-1.4c-.5-.5-.8-1-1.1-1.5-.3-.5-.4-1-.5-1.6-.1-.6-.2-1.2-.2-2v-4.8c0-.7.1-1.4.2-2s.3-1.1.5-1.6c.3-.5.6-1 1.1-1.5.6-.6 1.4-1.1 2.2-1.4.8-.3 1.7-.5 2.8-.5 1.7 0 3.2.5 4.4 1.5 1.2 1 2 2.4 2.3 4.4h-3.7c-.2-.8-.5-1.4-1-1.9s-1.2-.7-2.1-.7c-.5 0-.9.1-1.3.3-.4.2-.7.4-1 .7-.2.2-.3.4-.4.6s-.2.6-.3.9c-.1.4-.1.9-.2 1.4 0 .6-.1 1.3-.1 2.2 0 .9 0 1.6.1 2.2 0 .6.1 1.1.2 1.4.1.4.2.7.3.9.1.2.3.5.4.6.3.3.6.5 1 .7s.8.3 1.3.3c.9 0 1.6-.2 2.1-.7s.8-1.1 1-1.9h3.7zm10.7 5.7v-1.2c-.4.4-.9.8-1.4 1s-1.1.3-1.9.3c-1.5 0-2.7-.4-3.4-1.2-.4-.4-.6-.8-.8-1.3-.2-.5-.3-1.1-.3-1.7 0-.5.1-1 .3-1.5.2-.5.5-.9.9-1.2.4-.4.9-.6 1.5-.8.6-.2 1.3-.3 2.1-.3h3.1v-.7c0-.7-.2-1.3-.6-1.6-.4-.3-1-.5-1.9-.5-.6 0-1.1.1-1.5.3-.4.2-.8.5-1.1.9l-2.1-2.1c.7-.7 1.3-1.2 2.1-1.5.7-.3 1.7-.4 2.8-.4 3.8 0 5.8 1.6 5.8 4.8v8.9h-3.6v-.2zm0-5.7h-2.6c-1.3 0-2 .5-2 1.6 0 .5.2.8.5 1.1s.8.4 1.6.4c.4 0 .8 0 1.1-.1.3-.1.6-.3.9-.5.2-.2.3-.4.4-.7s.1-.6.1-1.1v-.7zm18.7-1.1v1.7c0 .5-.1 1-.2 1.5s-.2 1-.4 1.4c-.2.4-.4.8-.8 1.1-.4.4-.9.7-1.4.9-.6.2-1.2.3-1.8.3-.7 0-1.3-.1-1.8-.3s-1-.5-1.4-1.1v6.1H105V23.4h3.3v1.3c.5-.5 1-.9 1.5-1.1s1.2-.3 1.9-.3 1.3.1 1.8.3c.6.2 1 .5 1.4.9.3.3.6.7.8 1.1.2.4.3.9.4 1.4s.2 1 .2 1.5c-.1.5-.1 1.1-.1 1.6zm-3.3 0c0-.5 0-1-.1-1.5s-.2-.9-.3-1.2c-.2-.3-.4-.6-.7-.8-.3-.2-.7-.3-1.2-.3s-.9.1-1.2.3c-.3.2-.5.5-.7.8s-.3.8-.3 1.2c-.1.5-.1 1-.1 1.5 0 .6 0 1.1.1 1.5.1.5.2.9.3 1.2.2.4.4.6.7.8.3.2.7.3 1.2.3s.9-.1 1.2-.3c.3-.2.5-.5.7-.8.2-.4.3-.8.3-1.2 0-.4.1-.9.1-1.5zm7-9v-2.7h3.4v2.7h-3.4zm.1 15.8V23.8h3.4v13.1H120zm11.9 0c-.7 0-1.3-.1-1.8-.3s-.9-.5-1.2-.9-.6-.8-.7-1.2c-.1-.5-.2-.9-.2-1.4v-6.7h-1.4v-2.6h1.4v-4h3.4v4h2.4v2.6h-2.4v6.5c0 .8.4 1.2 1.2 1.2h1.2V37h-1.9v-.1zm12.6 0v-1.2c-.4.4-.9.8-1.4 1s-1.1.3-1.9.3c-1.5 0-2.7-.4-3.4-1.2-.4-.4-.6-.8-.8-1.3s-.3-1.1-.3-1.7c0-.5.1-1 .3-1.5s.5-.9.9-1.2c.4-.4.9-.6 1.5-.8.6-.2 1.3-.3 2.1-.3h3.1v-.7c0-.7-.2-1.3-.6-1.6-.4-.3-1-.5-1.9-.5-.6 0-1.1.1-1.5.3-.4.2-.8.5-1.1.9l-2.1-2.1c.7-.7 1.3-1.2 2.1-1.5.7-.3 1.7-.4 2.8-.4 3.8 0 5.8 1.6 5.8 4.8v8.9h-3.6v-.2zm-.1-5.7h-2.6c-1.3 0-2 .5-2 1.6 0 .5.2.8.5 1.1s.8.4 1.6.4c.4 0 .8 0 1.1-.1s.6-.3.9-.5c.2-.2.3-.4.4-.7.1-.3.1-.6.1-1.1v-.7zm11.3 5.7c-.7 0-1.3-.1-1.8-.3s-.9-.5-1.2-.9-.6-.8-.7-1.2c-.1-.5-.2-.9-.2-1.4V18.4h3.4v14.4c0 .4.1.7.3.9s.5.3.9.3h1.3v2.9h-2zm29.1-6.3c0 1-.2 1.9-.5 2.7-.4.8-.8 1.5-1.5 2-.6.6-1.3 1-2.2 1.3-.8.3-1.7.5-2.7.5-.9 0-1.8-.2-2.7-.5-.8-.3-1.5-.7-2.2-1.3-.6-.6-1.1-1.2-1.5-2s-.5-1.7-.5-2.7V18.4h3.6v12c0 1.1.3 1.9.9 2.5.6.6 1.3.9 2.3.9s1.8-.3 2.3-.9c.6-.6.9-1.4.9-2.5v-12h3.6v12.2h.2zm12 6.3v-8.2c0-.5-.1-.9-.2-1.2-.1-.3-.3-.6-.5-.8-.2-.2-.5-.3-.7-.4-.3-.1-.5-.1-.8-.1s-.5 0-.8.1-.5.2-.7.4c-.2.2-.4.4-.5.8-.1.3-.2.7-.2 1.2v8.2H189V23.4h3.3v1.2c.4-.5 1-.8 1.6-1s1.2-.4 1.8-.4c.7 0 1.3.1 1.8.3.5.2 1 .5 1.4.9.6.6.9 1.1 1.1 1.8.2.6.3 1.3.3 2.1v8.6h-3.5zm7.4-15.8v-2.7h3.4v2.7h-3.4zm.1 15.8V23.8h3.4v13.1h-3.4zm18.4-6.8c0 1.2-.1 2.3-.3 3.1s-.6 1.6-1.2 2.2c-.4.4-1 .8-1.7 1.2-.7.3-1.5.5-2.5.5s-1.8-.2-2.5-.5-1.2-.7-1.7-1.2c-.6-.7-1-1.4-1.2-2.2s-.3-1.8-.3-3.1c0-1.2.1-2.2.3-3s.6-1.5 1.2-2.2c.4-.4 1-.8 1.7-1.2s1.5-.5 2.5-.5 1.8.2 2.5.5 1.2.7 1.7 1.2c.6.7 1 1.4 1.2 2.2.2.8.3 1.8.3 3zm-3.3 0c0-.7 0-1.3-.1-1.9s-.3-1-.6-1.4c-.4-.4-.9-.6-1.6-.6-.6 0-1.2.2-1.6.6-.3.3-.6.8-.6 1.4-.1.6-.1 1.2-.1 1.9s0 1.3.1 1.9c.1.6.3 1 .6 1.4.4.4.9.6 1.6.6.7 0 1.2-.2 1.6-.6.3-.3.6-.8.6-1.4 0-.5.1-1.2.1-1.9zm14.9 6.8v-8.2c0-.5-.1-.9-.2-1.2-.1-.3-.3-.6-.5-.8-.2-.2-.5-.3-.7-.4-.3-.1-.5-.1-.8-.1s-.5 0-.8.1-.5.2-.7.4c-.2.2-.4.4-.5.8-.1.3-.2.7-.2 1.2v8.2h-3.4V23.4h3.3v1.2c.4-.5 1-.8 1.6-1s1.2-.4 1.8-.4c.7 0 1.3.1 1.8.3.5.2 1 .5 1.4.9.6.6.9 1.1 1.1 1.8.2.6.3 1.3.3 2.1v8.6h-3.5z" fill="#181716"/></svg>