<svg xmlns="http://www.w3.org/2000/svg" viewBox="0 0 130.449 155.604"><path fill="#F49901" d="M118.078 152.514l-.082-.027.027-.028.055.055zm.59-.027c-.069 0-.137 0-.206.014l-.096.068c0 .028.014.055.041.069.014 0 .055.013.069.027.013.014.027-.027.04-.014.015.014.097.055.11.069a.463.463 0 0 0 .165-.082c.055-.014-.096-.096-.123-.151zm-1.974.96l.137.027h.123l.028-.055v-.014l-.069-.055h-.123l-.083-.027-.013-.027-.028-.096-.013-.014h-.014l-.041.055h-.014l-.082-.028-.014-.027h-.014l-.096-.014-.054.014-.083.055v.055l.069.04h.068l.165.042.15.068zm.096-.138l.11.014.082.041.04.055.014.041s0 .014.014.014l.123.014s.014 0 .014-.014l-.04-.11-.316-.274h-.082s-.014 0-.014.014v.178l.055.027zm-.33.137h-.04s-.014 0-.014.014l-.014.028v.013l.028.041s.013.014.013 0l.028-.068c.013 0 .013-.014.013-.014 0-.014-.013-.014-.013-.014zm.07 0h-.028s-.014 0-.014.014l.014.028s0 .013.013.013c0 0 .014 0 .014-.013v-.028c.014 0 .014-.014.014-.027 0-.014-.014-.014-.028-.014l.014.027zm-.796.604l.123.027.096-.014h.014l.028-.027h.013l.055.014-.123-.096v-.041c0-.014 0-.014.013-.014h.014c.014 0 .014-.014.014-.014v-.014c0-.013-.014-.013-.028 0 0 0 0 .014-.013.014l-.055.014h-.014l-.055-.069h-.013l-.096.041h-.096l-.083.083-.082.054v.028s0 .014.014.014l.22.027.054-.027zm.247.37s0-.014-.014-.014l-.15-.041c-.014 0-.014 0-.014.014l-.028.068s0 .014-.013.014l-.069-.014c-.014 0-.014.014-.014.014l.014.123c0 .014.014.014.014.014l.082-.069h.096c.014 0 .014 0 .014-.013v-.069c0-.014.013-.014.013-.014h.055c.014 0 .014-.013.014-.013v-.028.028zm.233.37l-.123-.014-.069-.027h-.014l-.055.04c-.013 0-.013.015 0 .028l.055.028.014.013v.069l.027.041h.014l.096.027h.014l.013-.013s.014 0 0-.014l.014-.123v-.014l.014-.014c.014 0 .027-.013.014-.027 0-.014-.014-.028-.028-.014l.014.014zm-2.043.699c0-.014 0-.014-.013-.027h-.014l-.014-.014-.055-.124c0-.013-.013-.013-.027-.027h-.055c-.014 0-.027 0-.027.014 0 .013 0 .027.013.04l.028.028s.014.014.027.014h.014a.03.03 0 0 1 .027.027v.055l.042.096c0 .014.013.014.027.028.014.013.041 0 .041-.014v-.041l-.014-.055zm3.044-1.659c-.014 0-.014 0 0 0h-.137l-.138.069h-.013l-.055-.028-.014-.027h-.027c-.014 0-.014 0-.014.014v.041h-.027c-.014 0-.014 0-.028-.014l-.04-.123c0-.014-.015-.014-.015-.014-.013 0-.013.014-.013.014l-.028.205v.014l.041.082h.028v.014l-.014.014v.013l.014.028c0 .014.014.014.027 0l.055-.069.055-.04.041-.028h.014l.274.082c.014 0 .014.014.014.027l-.096.055-.014.014v.069s0 .013-.014.013l-.096.055-.027.014c-.014 0-.014.013-.014.027l.014.014h.014l.04-.028.07-.082v-.013l.013-.083s0-.013.014-.013l.096-.055h.013l.014-.041v-.22h-.027zm.41.055c-.013 0-.013 0 0 0l-.027-.027c-.013-.014-.04 0-.04.013v.028l.027.068.013.014.11.069h.028c.013 0 .027-.014.027-.042 0 0 0-.013-.014-.013l-.123-.11zm1.015-.164c0-.014-.013-.014 0 0-.013-.014-.013-.014 0 0l-.027.027.014.041h.013l.028-.041v-.014l-.028-.013zm.48-.343h.027c.013 0 .014-.014.028-.014l.027-.014.028-.013s.013 0 .013-.014v-.027h-.013a.19.19 0 0 1-.055.04s-.11-.027-.124-.027a.03.03 0 0 0-.027.028c0 .013-.014 0-.014 0l-.013-.028h-.083l.069.041.014.028c0 .014.013.027 0 .041-.014.014-.028.014-.041.014s0 .013 0 .013l.013.014s.028-.027.041-.027h.055s.014 0 0 .013c-.014.014-.014.042-.014.055l.014.014v.055c0 .014-.014.014-.014.027a.03.03 0 0 1-.027.028l-.11-.069-.04.028v.013l.164.178.013-.013v-.028c0-.013 0-.055-.013-.068v-.028c.013-.013.027-.04.04-.054 0 0 .015.013.028.027l.028.027.027.041h.014l.041-.054s.014-.014 0-.014l-.027-.027c-.014 0-.014-.014-.028-.028 0-.014-.014-.014-.014-.027s-.013-.028-.013-.041c0-.014-.028-.014-.041-.014s0 0 0-.014v-.041c0-.014.013-.041.027-.041zm-.425-.082c-.014 0-.014 0 0 0-.014 0-.014 0 0 0l.014.054h.027l-.04-.054zm.617.205h-.069.014l.014.014.027.014s.014.013.028.013c.013 0 0-.013 0-.013l-.014-.028c.014 0 .014 0 0 0zm4.318-4.098l.123-.124-.04.014-.083.11zm1.083.685c.027.055.233.425.233.466s-.027.11-.055.11c-.027 0-.055-.014-.068-.014l-.055-.082c-.014-.014.014-.028.027-.028l.082.083c.014.013.069-.042.055-.069-.013-.027-.192-.356-.246-.425s.082-.439.096-.507c.04-.096.082-.192.137-.274v-.028l-.042-.013h-.013l-.055.096h-.014l-.356.123-.33.15v.014l-.068.165s-.013.014-.013 0l-.412-.343v-.014l.233-.274.041-.027h.014c.014 0 .014 0 .014-.014s0-.014-.014-.014l-.082-.013s-.014 0-.014-.014l-.027-.11-.069-.068h-.096v.014l.028.04.082.028.014.014.055.123.013.014v.027l-.027.028v-.014l-.069-.164-.096-.042h-.013l-.096.055-.041.014h-.042s-.013 0-.013.014l-.014.04v.014l.041.096v.069c0 .014-.014.014-.014.014h-.013l-.069-.055s-.082-.15-.082-.165l-.041-.11v-.013l.013-.027s.014-.014.014 0l.233.013.069-.013c.013-.014.027-.028.027-.042v-.013l-.014-.041-.013-.055v-.014l.027-.055c0-.013 0-.013-.014-.013h-.041l-.054.068-.055.014-.233-.014-.041-.041c-.014-.069-.042-.137-.069-.206-.014-.027 0-.096 0-.123.027-.055.055-.096.082-.137h.028s.013.014 0 .014l-.014.013v.014h.11l.054.055.028.055.096.054v.014l.055.137s0 .014.013.014c.028 0 .041.014.069.014v-.055l-.041-.15v-.083c0-.014 0-.014.013-.014h.124c.014 0 .027.028.041.028s.096-.055.11-.069l.013-.041.055-.041h.028l.027.013h.069l.11.042h.013l.055-.083h.096l.315.124.233.178.137.233v.027l-.027.028-.069.027c-.014 0-.014.014-.014.014s0 .014.014.014h.082a.32.32 0 0 1 .096.096c.042.082-.068.287-.096.329-.027.04-.15.315-.164.342l-.096.439zm-.658-1.55l-.055-.027h-.014l-.013.014h-.014l-.027-.027h-.014l-.014.013v.014l.014.055s0 .014-.014.014h-.027l-.014.013s-.014.014-.014 0l-.013-.013-.014-.014-.014.014v.096l.028.04h.013l.041-.027h.014l.041.042h.014l.069-.014s.013-.014 0-.014l-.083-.055v-.013l.028-.069s.013-.014.013 0l.055.014h.014v-.055c0 .014 0 0 0 0zm-.727-.356l.083-.068.192-.055h.013l.014.028s.014.013.014 0c.027 0 .055-.014.082-.014 0-.014.027.041.041.055.014.013 0 0 .014 0h.096l.055-.014h.013l.055.041.041.014.083.013h.013v-.013l-.123-.028-.041-.027-.028-.069-.04-.04h-.125l-.356.095-.096.082c0 .014.014.014 0 0zm-2.632.549l.028.04.014.028c0 .014.013.014.013.028.014.013.028.013.041.013.014 0 .014 0 .028.014.014 0 .014.014.027.028.014 0 .014.013.028.027a.042.042 0 0 0 .027.014l.041.013.028.014c.013 0 .013 0 .027.014.014 0 .014.014.027.027.014.014.014.028.028.028s.014-.014.014-.028c0-.013 0-.027-.014-.027 0-.014-.014-.028-.014-.028l-.027-.027-.165-.15-.04-.028c-.015-.014-.028-.014-.042-.028l-.027-.027c-.014-.014-.028-.027-.028-.041h-.014s-.013 0-.013.014-.014.013-.028.013.014.028.014.028l.014.027c0-.014.013 0 .013.014zm.26-.288c-.013-.014-.013-.014 0 0 0-.014 0-.014 0 0l.07-.027m0-.014l.013-.041h.082l.014-.028h.014l.233.11h.055l.082.055v.027s0 .014.014.014l.15.014.028.04h.11l.191-.054.055-.014.055.014s.014 0 .014.014v.027h.014l.04-.014.07.014h.109l.082-.041h.014l.055.014h.041l.04.054-.013.138.014.054s0 .014-.014.014l-.04.014-.124.04h-.014l-.014-.027h-.013l-.042.014h-.013l-.014-.027h-.014l-.137.055-.013.054-.124.055-.11.014-.137.027h-.013l-.028-.054-.068-.055-.028-.096v-.014h.055l.014-.027.014-.014v-.014h-.014l-.069.028-.054.068h-.014l-.041-.068-.096-.055-.124-.028-.027-.04v-.042h-.014l-.013.014h-.014l-.069-.014-.027-.027h-.082l-.069-.055-.055-.11.082-.027zm1.439.26s0 .014 0 0c0 .014 0 .014 0 0h.055l.04-.027v-.014l-.013-.027h-.014l-.082.013s-.014 0-.014.014l.028.041zm-.082.014c.013 0 .013-.014.013-.014h-.027c0-.013 0 0 .014.014-.014-.014-.014 0 0 0zm-.233-.041c.013 0 .027 0 .013-.014v-.014h-.027c0 .014 0 .014.014.028zm-.206.288l.027.04.028-.013.013-.068-.068.04zm-.096-.26c0 .013.014.013 0 0 .014.013.014 0 .014 0v-.014l-.014.013c0-.013 0-.013 0 0zm-.082.273l.04.042.028-.028-.068-.014.055-.027-.014-.027-.041.054zm-.069-.096l.028.028h.013l.041-.055v-.014h-.013l-.055.028c-.014-.014-.014-.014-.014.013 0-.013 0 0 0 0zm-.055-.219h.014l.027-.014v-.013l-.027-.028h-.014l-.027.028s-.014.013 0 .013c0 .014.014.014.027.014zm-.205.069c0 .013 0 .027.013.04h.151l.014-.027v-.013l-.165-.014h-.013v.014zm.04.164l.042.055-.041-.055c0-.014 0-.014 0 0zm.056.082s-.014 0 0 0c-.014.014-.014.014 0 0l-.014.028.055.055.04.013h.015l-.014-.068c0-.014-.082-.028-.082-.028zm-2.166-.89h.027v-.014l-.014-.096-.068-.082-.027-.055c0-.014-.014-.014-.014-.014l-.014.014v.123l.11.123zm-4.25 3.536h.028a.03.03 0 0 0 .027-.027v-.055c0-.014 0-.014-.014-.028l-.054-.054a.042.042 0 0 0-.055 0c-.014.013-.014.013-.014.027l.027.11c.028.013.042.027.055.027zm8.8-1.33c-.013.055-.246-.233-.26-.164-.054.274-.301.713-.301.754 0 .027.027.082.068.096.069.014.179-.028.192 0 .014.027 0-.137.014-.124v.192a.334.334 0 0 0 0 .165l-.069-.014c0-.123-.054-.11-.068-.11-.055 0-.055.042-.082.11-.028.069-.233-.041-.288-.027-.055.013-.028.068-.082.055s-.055.082-.165.096a.517.517 0 0 1-.288-.096c-.068-.028-.11.068-.15.04s.013-.095-.028-.109c-.192 0-.384.014-.576.055-.027.027-1.343.384-1.494.439-.15.082-.288.164-.411.274-.028.013-.041.013-.069.027-.027.014 0 .055-.013.069s-.042-.028-.042-.028l-.096.083c-.013.013-.04.027-.054.013l-.055.041c0 .014 0 .028-.028.055-.054.055-.219.178-.287.233 0 0 .013.041.013.069s0 .027-.013.027c-.014 0-.096-.178-.096-.178-.083-.041-.11-.11-.138-.11-.027 0 .028.398-.027.357-.055-.041-.11-.151-.15-.151-.042 0 .027.082.054.123.028.041 0 .028-.014.028-.04 0-.11-.165-.178-.165a.591.591 0 0 0-.37.082v.247c.014.028.055.041.082.041.041 0 .069-.013.124-.013s.04.04.096.04.11-.027.15-.013l.014.041.124-.027.04.027-.095.165-.069.082.028-.055.11-.164v-.042l-.138.014-.027.069.027.055h-.027l-.028-.042c-.013.014-.013.028-.027.028v.096l-.014.013.028.028-.083.068h-.027l-.014.014h-.027l-.028.028-.068-.042-.055-.082h-.027l-.096-.096c-.014-.013 0-.027 0-.027l-.165-.082-.027-.055h-.028l-.054-.055-.055-.041-.014.013s-.096-.082-.069-.11c.028-.027.042.056.26 0 .028 0 .056 0 .083.028.014.014.041.028.055.041v-.192c-.123.083-.178-.013-.247-.054-.068-.028-.164-.014-.205.054-.042.055-.083 0-.083-.027-.054-.041-.123-.082-.178-.123-.082.11-.15.233-.22.342-.013.014-.027.028-.04.014l-.11-.068c-.014-.014-.014-.028-.014-.042.041-.068.137-.274.179-.342.013-.014 0-.041-.014-.041l-.178-.11c-.014-.014-.028 0-.042.014-.04.068-.137.233-.164.233a3.171 3.171 0 0 1-.48-.247c-.014 0-.014-.014-.014-.027a.287.287 0 0 1 .055-.083c.014-.013.028-.013.041-.013l.316.178c.013.013.027 0 .04-.014a.41.41 0 0 0 .056-.11c-.014-.04-.192-.123-.26-.164-.014 0-.028-.028-.014-.041.013-.014.013-.041.027-.055.014-.014.014-.028 0-.041a.65.65 0 0 1-.137-.137 1.726 1.726 0 0 1-.041-.137.03.03 0 0 0-.028-.028l-.027.028c.027.068.096.164.068.219-.027.055-.068.027-.137.027-.068.014-.123-.013-.164-.068-.014-.028.027-.028.027-.055s-.013-.027-.04-.014c-.028.014-.042.055-.07.055-.054 0-.274-.041-.287-.082-.014-.041-.069-.206-.028-.247l-.04-.014-.042.083c-.014.027-.055.082-.041.096.014.013.068-.014.068 0 0 .013.014.068.028.096 0 .013 0 .013-.014.027h-.014l-.11-.041-.136-.137h-.014l-.082-.014c-.014 0-.028.014-.028.014v.013c0 .014.014.014.028.014h.041l.137.124v.013c0 .014 0 .028-.014.028h-.192a.03.03 0 0 0-.027.027v.179a.487.487 0 0 0 .137.027c.069 0-.055-.041.055-.028.055 0 .096.014.137.055.027.028.041.069.041.124l.137.15.11.014c.055.041.096.082.096.11 0 .082-.165.123-.192.123-.041-.041-.11-.055-.165-.068-.013 0-.068.04-.054.068s.04.014.068.027c.11.014.096.042.096.124-.027.041-.096.055-.15.082a.942.942 0 0 1-.11-.041.575.575 0 0 0-.192-.123c-.041-.014-.041-.069-.041-.069s.013.055-.014.055c-.028 0-.055-.028-.069-.014s-.027.041-.04.069c0 0 .26.11.246.15-.014.083-.411.206-.452.22a1.628 1.628 0 0 1-.069-.247l-.15-.137-.083-.069c-.014.028-.027.055-.055.069-.014.014-.055.069-.055.069l.124.11c.013.027.192.465.068.548-.014 0-.014 0-.027-.014-.014-.014-.082.068-.11.11-.014.013 0 .054 0 .054-.041.041-.082.083-.123.11-.014.014-.069.082-.082.082-.014 0-.042 0-.055-.013l.082-.096c.014-.014-.041-.137-.069-.179-.013-.013-.11 0-.123-.027a1.29 1.29 0 0 0-.164-.302 1.293 1.293 0 0 1-.138-.315.733.733 0 0 0-.054-.164.087.087 0 0 1 0-.083l.11-.082s-.042-.055-.056-.055c-.013 0-.068.055-.068.055s.096-.096.11-.096.054.055.068.055c.055-.014.082-.069.096-.069.165-.11.384-.26.452-.301.11-.028.22-.041.33-.028-.055 0-.138.192-.138.192l-.164.165.096.068.096-.082c.04.014.096-.041.096-.082s.082-.11.123-.137c.028-.014.082.096.11.164.013.014.027-.027.04-.027a.03.03 0 0 1 .028.027c0 .014-.013.069 0 .069s.069-.055.069-.069c0-.013-.069-.027-.069-.027-.082-.165-.027-.15-.013-.15s-.014-.028-.028-.056c-.014-.027-.068-.027-.055-.055.028-.027.041-.054.069-.068.014-.014.11.014.11.027v-.205c0-.014-.014-.137-.014-.178 0-.014 0-.014-.014-.014h-.014c-.013 0-.027 0-.027.014v.11c0 .013-.014.027-.014.027h-.013a.19.19 0 0 1-.124 0c-.027-.014.014-.042-.013-.055-.042-.041-.179-.206-.275-.082 0 0 .124.191-.192.164 0 0-.027-.233-.082-.247-.055-.013-.041.233-.027.26.013.028-.028.056-.069.056s-.11-.083-.137-.124c-.014-.014-.014-.014-.014-.027v-.069a.03.03 0 0 0-.027-.027h-.041a.03.03 0 0 0-.028.027l.014.082c0 .014 0 .014.014.028l.068.096a.042.042 0 0 1 0 .055l-.123.123a.042.042 0 0 1-.055 0c0-.014-.013-.027-.013-.041-.028-.055-.096-.096-.151-.082-.055.013-.083-.055-.083-.055s-.054-.124-.082-.096c-.027.027-.068-.028-.04-.055.027-.027.191-.164.191-.164s.014-.11-.069-.042c-.082.069-.11.11-.137.138-.013.013-.027.013-.04 0l-.042-.028a.042.042 0 0 1 0-.055c.028-.04.069-.068.096-.11.014 0 .028-.054.028-.054s-.055-.055-.083-.014c-.027.041-.055.069-.082.11-.014.013-.027.013-.041 0l-.082-.083a.042.042 0 0 0-.055 0l-.069.069c-.013.014-.013.027 0 .041l.37.576.042.11v.013l-.014.082.04.028h-.163c-.014 0-.014-.014-.014-.014l.013-.123c0-.014 0-.014-.013-.014-.014 0-.014 0-.014.014v.014l-.027.164-.014.22v.013l.041.041v.055c0 .014 0 .014-.014.014h-.068l-.11.055h-.247l-.054.027h-.014l-.069-.027h-.013l-.055.096v.109l-.014.028v.013l.027.083v.329l.055.096h.041c.014 0 .014.013.014.013v.041c0 .014 0 .014-.014.014h-.096s-.013 0-.013.014l-.028.123v.014l-.082.068v.014l.014.069s0 .013.013.013l.7.192h.068c.014 0 .014.014.014.014v.014l-.014.027h-.014l-.863-.192-.041-.027v-.014l.013-.027s.014-.014.028 0l.027.027s.014.014.014 0l.027-.041.055-.123v-.014l.028-.274c0-.014 0-.014-.014-.014h-.028l-.082-.082h-.013l-.069-.028c-.014 0-.014 0-.014-.013v-.055c0-.014.014-.014.014-.014l.137.014c.014 0 .014 0 .014-.014v-.014l-.014-.027v-.014h-.054c-.014 0-.014-.013-.014-.013l.013-.165c0-.014.014-.014.014-.014l.041.014c.014 0 .014 0 .014-.014v-.027s0-.014-.014-.014l-.041-.014s-.014 0-.014-.013l-.027-.082v-.014l-.014-.014c-.014 0-.014-.014 0-.027h.041c.014 0 .014 0 .014-.014v-.055l-.055-.055v-.013l.069-.124.013-.137s0-.014.014-.014l.069-.013.082-.083v-.013l-.014-.137v-.014l.028-.027v-.014l-.042-.11-.027-.04v-.015c.041-.096.466-1.137.48-1.124a.24.24 0 0 1 .04-.137c.028-.04-.054-.096-.04-.123s.04-.028.068-.014c.028.014.069-.178.083-.178.013 0-.055.247-.055.247.04 0 .082.027.11.04.04.042.04.124.191.097.014 0-.04.096-.04.096s.013.055.068.082c.055.027.123.014.123-.027 0-.014 0-.028-.027-.042-.028-.013-.028.028-.041.014.013-.055 0-.11-.042-.137-.123-.096-.287-.288-.274-.329s.069-.014.11-.041-.027-.055-.014-.069a.422.422 0 0 1 .178-.04c.014 0-.013.027-.013.04.013.028.04.055.068.083 0 0 .069-.055.028-.069-.041-.014-.11-.178-.083-.192.069-.082.096-.11.096-.11.11-.013.22-.013.33 0 .027 0-.014.055 0 .096 0 .014.013.042.027.042.027.027.082.027.082 0a.258.258 0 0 0 .028-.11c0-.027-.069.014-.055 0 .04-.055-.055-.055-.055-.082 0-.028.014-.028.027-.055h.041s-.013-.069 0-.069.124.041.137.028c.014-.014 0-.069.028-.083.027-.013.027.069.055.055.027-.013 0-.082 0-.082-.028-.014-.055-.014-.069-.014-.027 0-.014.069-.027.083-.014.013-.028.027-.041.013-.014-.013-.041-.027-.055-.04-.014-.015 0 .027-.014.027s-.014-.042-.014-.042l-.013-.04c-.096 0-.179.013-.274.027-.028-.014-.055-.028-.069-.055a2.217 2.217 0 0 0-.137.247c-.014.013.027.027.014.055-.014.027-.042.027-.055.054-.014.028-.014-.04-.055-.013l-.165.246c-.013-.013.083-.15.124-.274.027-.068.055-.027.096-.082a.99.99 0 0 0 .123-.274c.096-.055.069-.096.11-.165a.34.34 0 0 0 0-.233.236.236 0 0 1 .027-.164c.041-.041.137-.096.165-.069l.027-.096c.028-.04.069-.301.096-.301l.069-.014.027-.069.069.014.068-.068.069.027v-.027l.055-.042c.11-.013.164 0 .178-.027.013-.027.342-.37.452-.397.11-.028.22-.055.233 0 .014.054-.11.082-.014.137.096.054.042-.124.096-.124s.247.055.275.151c.027.096.082.315.027.425-.055.11-.233.343-.37.343-.055 0-.082-.083-.151-.069-.137.014-.274.069-.274.055 0-.014-.028.014-.028.041s.083-.041.096-.014c.014.028.083.014.069.042s-.137.04-.123.04c-.014.028.096.083.123.07.027-.015-.041-.07.014-.097.027-.013.027-.082.068-.096.041-.013.069.028.069.096 0 .041.15-.04.164-.04.014 0 0 .081 0 .068s.041-.055.041-.055a.106.106 0 0 1 .028.137.42.42 0 0 0-.069.137s.041.041.028.069-.028.068-.055.068c-.124.014-.096.041-.124.055-.027.014.014 0 .055 0l.014.096s.014-.11.027-.11c.028 0 .055-.014.069-.014a.287.287 0 0 0 .055-.082c0-.027 0-.068-.014-.096.014-.027.041-.096.069-.082.027.014.054.096.068.123.028.055.11.137.11.055 0-.082-.178-.233-.192-.274-.014-.041-.041-.082.055-.123.096-.041.137-.041.205-.096a.817.817 0 0 0 .192-.288c.014-.055-.082-.15-.096-.233-.013-.082.055-.096.083-.055a.498.498 0 0 0 .37.027c.068-.04.123-.274.233-.329.11-.054.246 0 .384-.15.137-.151.452-.37.603-.357.15.014.37-.013.37.041 0 .055-.11.096 0 .11.11.014.11-.137.137-.096 0 0 .096.069.137.096a.042.042 0 0 1 .014.027v.124c.013 0 .027 0 .027-.014l.041-.068c0-.014.014-.014.028-.014.027.027.096.068.164.137 0 0-.22.137-.205.15.082-.04.178-.095.26-.15a.275.275 0 0 1 .11.055s.054.04.054.068v.055a.49.49 0 0 1-.123.028s-.027-.083-.027-.069v.123l.04.041-.013-.04s.192-.014.192 0c.027.04 0 .068.027.109l.014.027c0 .014-.11.096-.11.11 0 .014-.11.028-.11.055s.056 0 0 .027c-.054.028.097.069.11.055.014-.014.014-.027.042-.068.027-.041.068-.028.082-.055.014-.028-.014-.082 0-.082.055.04.11.096.137.15.014.083-.082.151-.123.22 0 0-.22.466-.384.466-.028 0-.069-.069-.083-.055-.013.014-.095.055-.11.027-.013-.027-.095-.027-.123 0l-.027.069-.014.055c0 .013 0 .013.014.027s.027.014.027 0l.042-.055.096-.013h.013v.013l-.027.028.014.055c.013 0 0 .027 0 .04-.014.014 0 .028.013.042l.055.027c.123.028.055-.082.137-.123.014 0 .028.055.041.055.069-.028-.013-.055.028-.083.068-.04.15-.082.205-.137.014 0 .055.041.069.028.014-.014-.041-.069-.041-.069a.786.786 0 0 0 .15-.15l.042-.083c.013-.027 0-.055-.014-.068l-.027-.014s0-.014.013-.014l.069.028.137-.041s-.014-.028 0-.055a.212.212 0 0 1 .15-.11c.138-.014.179.069.234.096.123.041.233.11.329.178a.106.106 0 0 1-.028.137h-.068l-.014.028c.027 0 .041.013.041.027 0 .055-.164.165-.205.247l-.014.027h.04v-.04c.083-.083.083-.083.11-.07.028-.013.179-.274.206-.301.041-.041.096-.055.165-.055.082-.014.123-.068.15.055 0 .082.042.165.096.233.069.055.138.123.22.165-.069.11-.137.205-.233.287-.028.028-.028.069-.055.11l.027.028c.041-.042.11-.165.137-.179.138-.096.22-.178.247-.164a.35.35 0 0 1 .165.205c.027.083.315.233.37.233.123.028.247.028.356.014.055-.027.11-.247.22-.274.11-.027.52-.027.589.055s.137.343.192.37.055.014.068.055c.014.04-.068.123.042.11.123 0 .26.027.37.11.096.013.52.232.507.314zm-9.69.562v-.027s-.014-.014-.014 0l-.014.014v.013l.014.014.013-.014zm.438-1.74v-.014l-.082-.11c.027 0 .054.014.082.014h.014l.013-.041h.014l.041.013h.014l.014-.027v-.014h-.014v-.027s0-.014-.014-.014h-.055s0-.014-.013-.014c0 0 0-.013-.014-.013 0 0-.014 0-.014.013v.042s0 .013-.014.013h-.04l-.083-.068h-.014l-.054.068h-.028l-.027.041v.014l.027.096h.041s.014 0 .014.014l-.014.014v.013h.014c.014 0 .014-.013.027-.013 0 0 0 .04.014.068v.014l-.068.068v.014l.013.027s.014.014.014 0l.014-.027s0-.014.013-.014h.028s.014 0 .014-.013v-.014s0-.014.013-.014c0 0 .014 0 .014.014l.014.027v.041s0 .014.013.014l.028-.014h.013s.014 0 .014-.013l-.041-.096v-.014h.027s.014 0 .014-.014c0-.013 0-.013-.014-.027.014 0 .014-.014.028-.027zm.027.15c-.013-.013-.013-.04-.027-.055v.028c0 .014 0 .027.014.041l.013.014v-.028zm.028-.15l.04-.042v-.013h-.027l-.027-.028h-.014c0 .014-.013.014-.027.028v.013l.027.055c.014-.013.028 0 .028-.013zm.068.054s0-.013 0 0h-.013l-.028.041h-.027v.055s0 .014.013 0h.042l.013-.096zm.041.055l-.013.014.013.027m0-.013l.014-.028-.014.028zm.206-.795l-.055-.055c-.014-.014.041-.028.028-.041s-.069 0-.069 0l-.055.013-.055-.013-.04-.042h-.014l-.042.028v.014l.028.04v.014l-.028.028h-.013l-.069-.041h-.014l-.027.027v.014l.055.082.11.027h.013l-.027-.054v-.014h.027v-.082s0-.014.014-.014l.082.055h.028l.054.04m.042-.013c.013.014.04 0 .027-.013l-.027.013zm.89 2.139l.028.096.041-.041.082.054a.347.347 0 0 0-.082-.205c-.027-.028-.11-.014-.137-.028-.082-.027-.068.014-.068.041s.123.042.137.083zm.028.246l.027-.068v-.054c-.013 0-.013 0-.027.013-.014.04-.027.082-.014.123.028.028.069 0 .083.014.013.014.013.027.013.041h.014c0-.014 0-.014-.014-.027a.03.03 0 0 0-.027-.028l-.055-.014zm.123.138c0-.014 0-.042-.013-.055h-.014v.027a.762.762 0 0 1-.123.233l-.028.055.055.014a.503.503 0 0 0 .123-.274zm.508.41l-.042-.013a.221.221 0 0 1-.095-.055c-.028-.027.04-.15.068-.233 0 0 0-.013-.014 0l-.013.014a.952.952 0 0 0-.069.178c-.014.028 0 .028 0 .055s-.068.041-.068.041.096-.22.082-.22c-.014 0-.028-.013-.096-.027-.069-.013-.165-.04-.192-.013-.041.04-.055.164-.027.178.068.068.137.137.219.192.041.027.096.013.123-.014 0 0 .028-.041 0-.069-.027-.027-.068.028-.096 0-.027-.027.028-.027.096-.027.014 0 .028.014.028.014v.027h.013l.083-.027zm2.138 1.44l.027.014h.042c.013 0 .013 0 .013-.014v-.014c0-.013 0-.013-.013-.027h-.055c-.014 0-.014 0-.014.014-.014.013-.014.027 0 .027zm-.014.26s.014.014.028.014v-.041l-.028.028c.014-.014 0 0 0 0zm-.11.042l.014.013v-.027l-.013.014zm-.013-.096l.027.027v.028c.014-.014.014-.028.028-.042 0-.013.014-.013.014-.027m-.535-3.262c0 .013.014.013.014.013h.04c.014 0 .014 0 .014.014v.027h.055c.014 0 .014.014.014.028v.013l-.069.069c-.013 0-.013.014 0 .027l.042.028h.027l.055-.096.014-.014h.013c.014 0 .014.014.014.014v.014c0 .013 0 .013.014.027h.027l.014-.014.027-.068c0-.014 0-.014-.013-.028l-.028-.013-.014-.014v-.027l.014-.028c0-.014 0-.014-.014-.014h-.013l-.069.028h-.014l-.04-.069h-.028l-.028.041h-.027l-.027-.013h-.028v.055h.014zm-1.042.37h-.041v.013l.014.041.027-.054c0-.014.014 0 0 0zm.137.15l-.068.014v.014l.027.041.041-.027v-.042zm.11-.987l-.041.206.027-.068h.014s.014 0 .014-.014l-.014-.028v-.013c.014-.028.027-.069.041-.096h.041s.014 0 .014.013 0 .014.014.014c.013 0 .013 0 .013-.014l.014-.11c0-.013.014-.013.014-.013h.013l.014.014h.014l.027-.041.082-.028c.014 0 .014 0 .014.014v.014l-.014.04v.056l-.04.04s-.014.014 0 .014c0 0 .013.014.013 0 0 0 .014 0 .014.014v.069c0 .013.013.013.013.013h.014l.014-.013v-.137l.041-.083s.014-.013.014 0l.04.041h.015l.095-.054.096-.179v-.013l-.013-.11c0-.014-.014-.014-.014-.014h-.027l-.028-.027-.027-.027v-.014l.013-.014v-.027h-.013v-.041c0-.014-.014-.014-.014-.014h-.027c-.014 0-.014.014-.014.014l.014.04v.083l.04.027v.014l-.013.027s-.014.014-.014 0l-.04-.013h-.028l.027-.055a.287.287 0 0 0-.055.082h-.013l-.041-.014s-.014 0-.014-.013v-.069c0-.013-.014-.013-.014-.013h-.014v.013c0 .014-.013.014-.013.014a.189.189 0 0 1-.055-.041v.027c0 .013 0 .014-.014.014h-.014a104.89 104.89 0 0 1-.04-.041c0-.014 0 .014.013.027 0 .014 0 .014-.014.014h-.013s-.014 0-.014.014v.013l.014.028v.013l-.041.014c-.014 0-.014.014-.014.014v.014l.027.027h.014l.041-.082h.014l.055.013c.013 0 .013.014.013.014-.013.014-.013.028 0 .041h.014l.069-.013s.013 0 .013.013v.014c0 .014 0 .014.014.014h.027c.014 0 .014.013.014.013l-.027.028h-.014l-.069-.014-.013-.014h-.028v.042s0 .013-.013.013h-.042s-.013 0-.013.014c0 0-.014.014-.014 0l-.027-.027-.069-.055h-.014l-.054.04v.015h.054l.042.054s.013.014 0 .014l-.028.014-.096-.014h-.027l-.041.014c-.014 0-.014.027 0 .027h.096c.013 0 .013 0 .013.014v.014l-.027.027-.069.027v.014s.014.014.014 0l.014-.014h.027l.028.028c.013 0 .027.014.027.027s-.027.055-.041.041zm.768.494l-.055-.11s0-.013-.014 0c-.014 0-.055 0-.055.014s-.027.055-.027.055l-.028.055h-.013c-.014 0-.055-.014-.055-.014 0 .014-.014.027-.014.041h-.014l-.054-.014v-.013l.04-.041h-.068l-.014-.014.014-.014v-.014h-.014l-.027.028h-.014l-.04-.041v-.014l.027-.055v-.014l-.028-.04c0-.014-.027 0-.027 0v.04s0 .014-.014.014c-.027-.014-.055-.014-.082-.014 0 0 .027.042.055.055v.014l-.028.014s-.014 0-.014.013v.042s0 .013-.013.013h-.014l-.027-.013-.014-.028s-.014-.014-.014 0l-.013.014-.014.096s0 .013.014.013h.013l.028-.027h.013l.028.041v.014l-.041.027h-.11v.041h-.041c-.014 0-.014.014 0 .028l.014.014v.013l-.014.069s0 .014.014.014l.027.013v.014l.014-.055.013-.027s.014-.014.014 0v.013s.014.014.014 0l.014-.027h.013l.028.014v.013l-.014.028.041-.055v-.082l.055-.069h.082s.014 0 .014.014v.027s0 .014.014.014l.054-.027h.014c.014 0 .069.013.055.013-.027.014-.041.041-.069.069h-.041s-.013 0-.013.014v.027h-.042l-.123.055.082-.028h.014v.042s0 .013-.014.013l-.178.069s-.014.013 0 .013l.041.028h.014l.055-.055h.013l.083.027h.013l.014-.013s.014-.014.014 0l.014.027v-.04s0-.015.013-.015h.028v-.054s0-.014.013-.014h.028v-.028s0-.013.014-.013h.013s.014 0 .014-.014v-.041l.041-.014.027-.068-.027.123v.014l.027.013h.014v-.04s0-.014.014-.014h.027v-.042s0-.013.014-.013l.027.013s.014 0 .014.014v-.014s0 .014.014 0l.027-.027v-.054l.041.068s.014.013.014 0v-.055l.027-.096c-.013 0-.013 0 0 0zm.589.713l-.014-.028v-.013l.014-.028v-.013l-.041-.028h-.014v.055s0 .014-.014.014l-.04-.014s-.014 0-.014-.014l-.042-.137h-.013l-.055.041s-.014.014 0 .014l.055.014s.013 0 .013.013l.014.042v.013h-.014l-.027-.027h-.014l-.027.027h-.069s-.013 0-.013-.013c0-.028-.014-.042-.028-.069-.013-.014 0 .055 0 .082 0 0 0 .014-.013.014l-.042.014s-.013 0-.013-.014l-.014-.069s0-.013-.014-.013c0 0-.013 0-.013.013l-.014.028h-.014l-.068-.041h-.014v.013l.027.042v.013h-.013s-.014.014 0 .014l.054.014.014.013v.028c0 .013.014.013.028.013l.013-.013.041-.014s.014 0 .014.014c0 0 0 .013.014.013 0 0 .014 0 .014-.013v-.014h.096l.027-.014h.014l.082.055h.014l.04-.027h.014l.028.027h.014l.068-.04c-.041.026-.041.013-.041.013zm.809.973l.04-.014c0-.013.042-.055.042-.055-.027-.04-.027-.11-.041-.123-.014-.014.014.123 0 .123s-.028.028-.041.069zm-.083.206v.054l.042-.013c0-.041 0-.096.027-.137l.192.027a.348.348 0 0 0-.11-.137l-.082.041a.075.075 0 0 1-.041.069.198.198 0 0 0-.028.096zm-.137.26h.028v-.027a.487.487 0 0 1-.137-.028s-.083.028-.055.083c.027.054.041.15.082.137.041-.014.069-.151.082-.165zm.11.096l-.027-.014-.055.124.082-.11zm.274.028c-.013-.014-.027-.028-.04-.055a.493.493 0 0 1-.152-.275l-.055.014a.4.4 0 0 0 .028.124c.014.027-.028.04-.082.04v.028c.096.041.192.096.274.165l.027-.041zm.028-.124l-.028.014.041.055-.013-.069zm.137-3.194c.013-.027 0-.11.013-.11a.133.133 0 0 1 .124.014c.055.014.096.041.15.041l.014-.027c-.027 0-.04-.014-.082-.014l-.15-.055c-.028 0 .082-.123.054-.137-.027-.013-.068.124-.096.124-.082.013-.274-.165-.274-.165l.082.123a.3.3 0 0 0 .137.124c.014 0-.027.068-.013.068s.027.042.04.014zm.164.302l-.04-.014v.041c.013.041-.138.15-.11.15a.276.276 0 0 0 .11-.054.637.637 0 0 0 .04-.123zm.686.384l-.028-.028a.802.802 0 0 0-.178.028c-.027.013-.041.054-.027.082 0 0 .04-.055.068-.055.055 0 .11-.014.165-.027zm.164.877l.014.055c0 .013.014.027.027.013l.055-.013.014-.014.027-.082c0-.014 0-.028-.013-.028l-.069-.013c-.014 0-.027 0-.027.013l-.014.069c-.014-.014-.014-.014-.014 0zm.26.233l-.013-.014v-.055a.03.03 0 0 0-.028-.027l-.04.014c-.014 0-.028 0-.028-.014v-.014c0-.013-.014-.013-.027-.013l-.124.027c-.014 0-.014.014-.014.014l-.027.04v.028l.055.055h.014c.04 0 .287.041.301.041.014 0-.041-.068-.068-.082z"/><g fill="#D8D9DB"><path d="M14.535 8.493s1.948-5.323 1.948-6.986 1.948-2.329 3.896 0c1.948 2.328 2.057 4.88 4.222 5.433 2.163.555 6.06-1.996 7.035-1.22s3.354 4.104 2.813 6.764c0 0 4.222-.776 5.63 0 1.405.777.865 8.982-.975 11.754 0 0-2.381 2.44-.108 4.325 2.273 1.884 4.546 1.663 5.412.998.866-.665.757-2.884 2.597-4.325 1.84-1.441 4.87-3.217 6.386-2.772 1.514.443 5.087 5.101 6.71 4.325 1.624-.777 2.381-1.996 3.57-4.325 1.191-2.328 2.814-3.992 3.573-3.992.757 0 2.814-3.437 2.597-4.435-.217-.998 1.082-1.553 1.406-1.108.325.443 3.03-1.33 3.788.332.757 1.662 3.57 8.316 5.412 10.645 1.84 2.328 15.044 8.649 17.967 15.08 2.92 6.43 7.034 10.312 7.142 13.084.108 2.772-.974 12.752 1.95 14.081 0 0-3.032 4.104-2.599 6.543.432 2.439 1.515 2.55 1.515 4.658 0 2.106-2.382 6.762-4.33 4.101 0 0 .542 4.547 2.165 4.99 1.623.443 2.163.665 2.163 2.218 0 1.554-1.408 1.442-1.19 3.883.216 2.437 1.298 2.329 1.298 4.213 0 1.886-2.164 5.213-.974 7.872 1.19 2.662 1.083 3.105 1.083 3.105s2.165-.443 2.38 0c.218.444-.324 1.996 1.624 3.55 1.95 1.552 3.68.222 4.547 1.329.867 1.11 0 2.107 0 2.107s2.38-.998 2.705 0-1.624 3.435-.759 3.992c.866.555 2.03.056 3.412 1.886 1.379 1.828.405 4.74 1.135 5.739.732.997.813 3.327 1.868 3.492 1.054.166 2.434 1.414 2.272 2.162s-2.355 1.33-1.704 1.663c.65.331 2.356.749 3.411 2.329 1.054 1.58 4.464 8.565 2.11 10.81-2.355 2.246-3.978-.083-4.383 0-.407.084-.083-3.243-.568-3.16-.487.084-4.627-5.406-5.358-4.408-.73.998 3.654 3.078 3.248 5.905-.407 2.826-2.734 1.414-3.6 1.634-.865.223-4.328-2.218-4.328-.886 0 1.33-.65 3.103-1.516 3.77-.866.664-4.113-2.663-4.113-2.663s-1.082 2.172-1.731 2.75.865-4.08-1.516-5.853c-2.379-1.775-9.524-2.663-9.524-2.663l-2.38-4.434s-7.577-5.323-9.308-3.549c-1.733 1.774-2.815-4.88-2.815-4.88s-.107-.664-1.298-.664c-1.19 0-5.735-2.773-8.66-2.441-2.921.333-3.787-.555-3.787-.555s-.865-4.546-3.354-4.435c-2.488.112-2.49.11-2.49.11s.759-2.327-.432-3.325-3.03-.776-3.03-.776.974-2.773-.107-2.773-6.061.667-6.818-.774c-.758-1.442-3.573-3.992-3.354-4.768.216-.777-3.573-2.663-2.814-5.322.757-2.662 1.082-1.887 2.056-1.442.974.443 1.408 1.774 1.408 1.774s.65-3.66-3.462-5.545v-2.329l-1.3-1.108v-2.552l-2.813-.665s-2.274-3.436-2.814-4.88-2.382-3.216-3.03-2.771-.542-1.773-.542-1.773-2.489-.888-2.38-1.331c.108-.443.431-2.44.431-2.44s-1.948 2.107-2.922.776c-.974-1.33-2.056-3.366-1.19-3.457.865-.092 3.03-1.533 3.896-.645.865.886.432-1.11.432-1.11s-2.706.665-2.706-.331-.542-1.996-1.407-1.553c-.866.443-2.49-.333-2.38-.998.107-.665 1.297-2.107.108-2.55-1.19-.444-1.624-.999-1.407-1.996.216-.998 1.948-3.216 1.948-5.433s-1.732-3.217-1.732-3.217-.649-2.328 0-2.328 1.516.555 1.516-.776-1.84-1.22-2.705-2.66c-.866-1.442-.542-2.33-.974-2.33s-2.272-.554-2.272-2.327c0-1.774 1.083-3.659 1.083-4.325 0 0 .108-2.882-.65-3.325-.758-.444-.975-4.435-.975-5.102 0-.666.65-5.654.542-8.426-.108-2.773-2.273-7.43-2.813-8.317-.542-.888-1.191-2.66-1.191-3.549 0-.886-1.948-2.772-2.273-2.883-.332-.11-.549-2.216-.549-2.216z"/><path d="M14.535 39.908l1.604-1.117v-1.675s-.698-1.397 0-1.676c.698-.279 1.117-1.258 2.095-.838.977.419 1.815.279 1.956.977.138.698.138 1.675 0 2.514-.14.837-1.258 1.815-1.258 1.815s-1.22 2.374-1.518 1.397-1.275.752-1.693.236c-.42-.515-1.186-1.633-1.186-1.633zM.638 10.44h1.956s-.42 1.259 0 1.676 1.675.698 1.815 0c.14-.698 2.095-.97 2.655-.625.56.346 2.513-.352 2.094-1.05-.419-.698-2.096-2.235-1.957-2.793.14-.56 0-1.816-.558-1.816-.56 0-1.048.839-1.048 1.607 0 .767-2.024 1.047-2.094.698-.07-.349-1.607-.56-1.886-.49-.28.071-1.746.42-1.606 1.048.14.63.629 1.746.629 1.746z"/><path d="M2.313 14.281c.49.42 1.188 1.816 1.535 1.816.35 0 3.282.07 3.282-.42v-3.42s-.698-.49-1.536 0c-.837.489-.231 1.396-.989 1.327-.757-.07-2.292.697-2.292.697zm123.267 91.706s-.094 1.373-.65 2.211c-.56.837-.14 1.677 0 1.956.138.281 2.373 1.397 2.373 1.397s.28-2.933 0-3.353c-.279-.419-1.723-2.21-1.723-2.21zM84.175 20.391s-1.186-1.726-.647-1.834c.54-.109-.323-.54.54-.109.865.432 2.05.352 2.05.877 0 .524-.647 1.605-.647 1.605l-1.296-.539zm9.605 5.397V24.06s.432-1.403.97-.756c.54.648.218 1.018.972 1.156s-.647 1.759-.971 1.865c-.324.107-.97-.538-.97-.538z"/></g></svg>