<?xml version="1.0" standalone="no"?>
<!DOCTYPE svg PUBLIC "-//W3C//DTD SVG 20010904//EN"
 "http://www.w3.org/TR/2001/REC-SVG-20010904/DTD/svg10.dtd">
<svg version="1.0" xmlns="http://www.w3.org/2000/svg"
 width="700.000000pt" height="700.000000pt" viewBox="0 0 700.000000 700.000000"
 preserveAspectRatio="xMidYMid meet">
<metadata>
Created by potrace 1.11, written by Peter Selinger 2001-2013
</metadata>
<g transform="translate(0.000000,700.000000) scale(0.100000,-0.100000)"
fill="#000000" stroke="none">
<path d="M0 3500 l0 -3500 3500 0 3500 0 0 3500 0 3500 -3500 0 -3500 0 0
-3500z m3331 1227 c346 -84 550 -305 591 -640 20 -158 -20 -351 -100 -482 -70
-115 -193 -215 -334 -272 -125 -51 -220 -64 -525 -70 l-283 -6 0 -418 0 -419
-230 0 -230 0 0 1166 0 1165 523 -4 c434 -3 533 -7 588 -20z m1179 -29 c163
-69 205 -289 82 -429 -98 -111 -287 -114 -391 -5 -103 108 -102 274 3 379 84
84 193 104 306 55z m80 -1483 l0 -815 -190 0 -190 0 0 815 0 815 190 0 190 0
0 -815z"/>
<path d="M2680 3994 l0 -386 253 4 c301 5 336 14 424 103 66 67 88 112 102
203 27 177 -49 351 -182 416 -70 35 -163 45 -399 46 l-198 0 0 -386z"/>
</g>
</svg>
