<?xml version="1.0" encoding="utf-8"?>
<!-- Generator: Adobe Illustrator 21.1.0, SVG Export Plug-In . SVG Version: 6.00 Build 0)  -->
<svg version="1.1" id="Слой_1" xmlns="http://www.w3.org/2000/svg" xmlns:xlink="http://www.w3.org/1999/xlink" x="0px" y="0px"
	 viewBox="0 0 254.1999969 56.5999985" enable-background="new 0 0 254.1999969 56.5999985" xml:space="preserve">
<rect x="0.046402" y="0.057003" fill="none" width="254.1999969" height="56.5999985"/>
<g>
	<path fill="#FF8200" d="M25,21.1999741h-3.2999878v6.2000122H25c1,0,1.7999878-0.2999878,2.2999878-0.8999634
		c0.6000366-0.6000366,0.7999878-1.3000488,0.7999878-2.2000122c0-0.9000244-0.2999878-1.6000366-0.7999878-2.2000122
		S26,21.1999741,25,21.1999741z"/>
	<path fill="#FF8200" d="M0,0.0000229v56.5999756h0.0999756h56.6000366V0.0000229H0z M30,28.5999985
		c-1.2000122,1.0999756-2.9000244,1.5999756-5,1.5999756h-3.2999878v6.8000488H18V18.1999741h7
		c2.0999756,0,3.7999878,0.6000366,5,1.7000122c1.2000122,1.1000366,1.7999878,2.6000366,1.7999878,4.4000244
		S31.2000122,27.5000229,30,28.5999985z M37.2000122,37.1999741h-3.1000366V24.0000229h3.1000366V37.1999741z
		 M35.5999756,22.8000107c-1.1999512,0-2.1999512-1-2.1999512-2.2000122s1-2.2000122,2.1999512-2.2000122
		c1.3000488,0,2.2000122,1,2.2000122,2.2000122S36.7999878,22.8000107,35.5999756,22.8000107z"/>
</g>
<g>
	<path fill="#181716" d="M86.8000031,31.2000008C86.5,33.1000023,85.7000046,34.6000023,84.5,35.6000023
		c-1.1999969,1-2.6999969,1.5-4.4000015,1.5c-1.0999985,0-2-0.2000008-2.8000031-0.5s-1.5-0.7999992-2.1999969-1.4000015
		c-0.5-0.5-0.8000031-1-1.0999985-1.5c-0.3000031-0.5-0.4000015-1-0.5-1.5999985
		c-0.0999985-0.6000004-0.1999969-1.2000008-0.1999969-2c0-0.7000008,0-1.5,0-2.3999996s0-1.7000008,0-2.3999996
		c0-0.7000008,0.0999985-1.3999996,0.1999969-2s0.3000031-1.1000004,0.5-1.6000004c0.3000031-0.5,0.5999985-1,1.0999985-1.5
		c0.5999985-0.6000004,1.4000015-1.1000004,2.1999969-1.3999996c0.8000031-0.2999992,1.6999969-0.5,2.8000031-0.5
		c1.6999969,0,3.1999969,0.5,4.4000015,1.5c1.1999969,1,2,2.3999996,2.3000031,4.3999996h-3.6999969
		c-0.1999969-0.7999992-0.5-1.3999996-1-1.8999996s-1.1999969-0.7000008-2.0999985-0.7000008
		c-0.5,0-0.9000015,0.1000004-1.3000031,0.2999992c-0.4000015,0.2000008-0.6999969,0.3999996-1,0.7000008
		c-0.1999969,0.2000008-0.3000031,0.3999996-0.4000015,0.6000004S77.1000061,23.8000031,77,24.1000023
		c-0.0999985,0.3999996-0.0999985,0.8999996-0.1999969,1.3999996c0,0.6000004-0.0999985,1.2999992-0.0999985,2.2000008
		c0,0.8999996,0,1.6000004,0.0999985,2.2000008c0,0.6000004,0.0999985,1.1000004,0.1999969,1.3999996
		c0.0999985,0.3999996,0.1999969,0.7000008,0.3000031,0.9000015c0.0999985,0.2000008,0.3000031,0.5,0.4000015,0.5999985
		c0.3000031,0.2999992,0.5999985,0.5,1,0.7000008s0.8000031,0.2999992,1.3000031,0.2999992
		c0.9000015,0,1.5999985-0.2000008,2.0999985-0.7000008s0.8000031-1.0999985,1-1.8999996
		C83.1000061,31.2000027,86.8000031,31.2000027,86.8000031,31.2000008z"/>
	<path fill="#181716" d="M97.5,36.9000015v-1.2000008c-0.4000015,0.4000015-0.9000015,0.7999992-1.4000015,1S95,37,94.1999969,37
		c-1.5,0-2.6999969-0.4000015-3.4000015-1.2000008C90.3999939,35.3999977,90.1999969,35,89.9999924,34.5
		c-0.1999969-0.5-0.3000031-1.0999985-0.3000031-1.7000008c0-0.5,0.0999985-1,0.3000031-1.5
		c0.1999969-0.5,0.5-0.8999996,0.9000015-1.2000008c0.4000015-0.3999996,0.9000015-0.6000004,1.5-0.7999992
		C92.9999924,29.0999985,93.6999969,29,94.4999924,29h3.0999985v-0.7000008c0-0.7000008-0.1999969-1.2999992-0.5999985-1.6000004
		c-0.4000015-0.2999992-1-0.5-1.9000015-0.5c-0.5999985,0-1.0999985,0.1000004-1.5,0.2999992
		c-0.4000015,0.2000008-0.8000031,0.5-1.0999985,0.8999996l-2.0999985-2.1000004
		c0.6999969-0.7000008,1.3000031-1.2000008,2.0999985-1.5c0.6999969-0.2999992,1.6999969-0.3999996,2.8000031-0.3999996
		c3.8000031,0,5.8000031,1.6000004,5.8000031,4.7999992v8.9000015H97.5V36.9000015z M97.5,31.2000008h-2.5999985
		c-1.3000031,0-2,0.5-2,1.5999985c0,0.5,0.1999969,0.7999992,0.5,1.0999985S94.2000046,34.2999992,95,34.2999992
		c0.4000015,0,0.8000031,0,1.0999985-0.0999985c0.3000031-0.0999985,0.5999985-0.2999992,0.9000015-0.5
		C97.1999969,33.5,97.3000031,33.2999992,97.4000015,33S97.5,32.4000015,97.5,31.8999996V31.2000008z"/>
	<path fill="#181716" d="M116.1999969,30.1000004c0,0.6000004,0,1.1000004,0,1.7000008
		c0,0.5000019-0.0999985,1.0000019-0.1999969,1.5000019s-0.1999969,1-0.4000015,1.4000015
		c-0.1999969,0.4000015-0.4000015,0.7999992-0.8000031,1.0999985c-0.4000015,0.4000015-0.9000015,0.7000008-1.4000015,0.9000015
		c-0.5999985,0.2000008-1.1999969,0.2999992-1.8000031,0.2999992c-0.6999969,0-1.3000031-0.0999985-1.8000031-0.2999992
		s-1-0.5-1.4000015-1.0999985v6.0999985h-3.4000015v-18.300005h3.3000031v1.2999992c0.5-0.5,1-0.8999996,1.5-1.1000004
		s1.1999969-0.2999992,1.9000015-0.2999992c0.6999969,0,1.3000031,0.1000004,1.8000031,0.2999992
		c0.5999985,0.2000008,1,0.5,1.4000015,0.8999996c0.3000031,0.2999992,0.5999985,0.7000008,0.8000031,1.1000004
		c0.1999969,0.3999996,0.3000031,0.8999996,0.4000015,1.3999996s0.1999969,1,0.1999969,1.5
		C116.1999969,29,116.1999969,29.6000004,116.1999969,30.1000004z M112.9000015,30.1000004c0-0.5,0-1-0.0999985-1.5
		S112.6000061,27.7000008,112.5,27.3999996c-0.1999969-0.2999992-0.4000015-0.6000004-0.6999969-0.7999992
		c-0.3000031-0.2000008-0.6999969-0.2999992-1.1999969-0.2999992s-0.9000015,0.1000004-1.1999969,0.2999992
		c-0.3000031,0.2000008-0.5,0.5-0.6999969,0.7999992s-0.3000031,0.7999992-0.3000031,1.2000008
		c-0.0999985,0.5-0.0999985,1-0.0999985,1.5c0,0.6000004,0,1.1000004,0.0999985,1.5
		c0.0999985,0.4999981,0.1999969,0.8999996,0.3000031,1.1999989c0.1999969,0.4000015,0.4000015,0.5999985,0.6999969,0.7999992
		c0.3000031,0.2000008,0.6999969,0.2999992,1.1999969,0.2999992s0.9000015-0.0999985,1.1999969-0.2999992
		c0.3000031-0.2000008,0.5-0.5,0.6999969-0.7999992c0.1999969-0.4000015,0.3000031-0.7999992,0.3000031-1.2000008
		C112.8000031,31.2000008,112.9000015,30.7000008,112.9000015,30.1000004z"/>
	<path fill="#181716" d="M119.9000015,21.1000004v-2.7000008h3.4000015v2.7000008H119.9000015z M120,36.9000015V23.7999992
		h3.4000015v13.1000023H120z"/>
	<path fill="#181716" d="M131.8999939,36.9000015c-0.6999969,0-1.3000031-0.0999985-1.8000031-0.2999992
		s-0.8999939-0.5-1.1999969-0.9000015S128.2999878,34.9000015,128.1999969,34.5C128.0999908,34,128,33.5999985,128,33.0999985
		v-6.7000008h-1.4000015v-2.6000004H128v-4h3.3999939v4h2.3999939v2.6000004h-2.3999939v6.5
		c0,0.7999992,0.3999939,1.2000008,1.1999969,1.2000008h1.1999969V37h-1.8999939V36.9000015z"/>
	<path fill="#181716" d="M144.5,36.9000015v-1.2000008c-0.3999939,0.4000015-0.8999939,0.7999992-1.3999939,1S142,37,141.2000122,37
		c-1.5,0-2.6999969-0.4000015-3.3999939-1.2000008C137.4000244,35.3999977,137.2000122,35,137.0000153,34.5
		s-0.3000031-1.0999985-0.3000031-1.7000008c0-0.5,0.1000061-1,0.3000031-1.5s0.5-0.8999996,0.8999939-1.2000008
		c0.3999939-0.3999996,0.8999939-0.6000004,1.5-0.7999992C140.0000153,29.0999985,140.7000122,29,141.5000153,29h3.1000061
		v-0.7000008c0-0.7000008-0.1999969-1.2999992-0.6000061-1.6000004c-0.3999939-0.2999992-1-0.5-1.8999939-0.5
		c-0.6000061,0-1.1000061,0.1000004-1.5,0.2999992c-0.3999939,0.2000008-0.8000031,0.5-1.1000061,0.8999996l-2.1000061-2.1000004
		c0.6999969-0.7000008,1.3000031-1.2000008,2.1000061-1.5c0.6999969-0.2999992,1.6999969-0.3999996,2.8000031-0.3999996
		c3.8000031,0,5.8000031,1.6000004,5.8000031,4.7999992v8.9000015H144.5V36.9000015z M144.3999939,31.2000008h-2.6000061
		c-1.3000031,0-2,0.5-2,1.5999985c0,0.5,0.1999969,0.7999992,0.5,1.0999985s0.8000031,0.4000015,1.6000061,0.4000015
		c0.3999939,0,0.8000031,0,1.1000061-0.0999985s0.6000061-0.2999992,0.8999939-0.5
		C144.0999908,33.5,144.1999969,33.2999992,144.2999878,33c0.1000061-0.2999992,0.1000061-0.5999985,0.1000061-1.1000004V31.2000008
		z"/>
	<path fill="#181716" d="M155.6999969,36.9000015c-0.6999969,0-1.3000031-0.0999985-1.8000031-0.2999992
		s-0.8999939-0.5-1.1999969-0.9000015S152.0999908,34.9000015,152,34.5c-0.1000061-0.5-0.1999969-0.9000015-0.1999969-1.4000015
		V18.3999996h3.3999939v14.3999996c0,0.4000015,0.1000061,0.7000008,0.3000031,0.9000015S156,34,156.3999939,34h1.3000031v2.9000015
		H155.6999969z"/>
	<path fill="#181716" d="M184.8000031,30.6000004c0,1-0.1999969,1.8999996-0.5,2.6999989c-0.3999939,0.7999992-0.8000031,1.5-1.5,2
		c-0.6000061,0.5999985-1.3000031,1-2.1999969,1.2999992c-0.8000031,0.2999992-1.6999969,0.5-2.6999969,0.5
		c-0.8999939,0-1.8000031-0.2000008-2.6999969-0.5c-0.8000031-0.2999992-1.5-0.7000008-2.1999969-1.2999992
		c-0.6000061-0.5999985-1.1000061-1.2000008-1.5-2s-0.5-1.7000008-0.5-2.7000008V18.3999996h3.6000061v12
		c0,1.1000004,0.3000031,1.8999996,0.8999939,2.5000019c0.6000061,0.5999985,1.3000031,0.9000015,2.3000031,0.9000015
		s1.8000031-0.2999992,2.3000031-0.9000015c0.6000061-0.5999985,0.8999939-1.3999996,0.8999939-2.5v-12h3.6000061v12.1999989
		H184.8000031z"/>
	<path fill="#181716" d="M196.8000031,36.9000015v-8.2000008c0-0.5-0.1000061-0.8999996-0.1999969-1.2000008
		c-0.1000061-0.2999992-0.3000031-0.6000004-0.5-0.7999992c-0.1999969-0.2000008-0.5-0.2999992-0.6999969-0.3999996
		c-0.3000031-0.1000004-0.5-0.1000004-0.8000031-0.1000004s-0.5,0-0.8000031,0.1000004s-0.5,0.2000008-0.6999969,0.3999996
		c-0.1999969,0.2000008-0.3999939,0.3999996-0.5,0.7999992c-0.1000061,0.2999992-0.1999969,0.7000008-0.1999969,1.2000008v8.2000008
		H189V23.3999996h3.3000031v1.2000008c0.3999939-0.5,1-0.7999992,1.6000061-1s1.1999969-0.3999996,1.8000031-0.3999996
		c0.6999969,0,1.3000031,0.1000004,1.8000031,0.2999992c0.5,0.2000008,1,0.5,1.3999939,0.8999996
		C199.5000153,25,199.8000031,25.5,200.0000153,26.1999989c0.1999969,0.6000004,0.3000031,1.2999992,0.3000031,2.1000004v8.6000023
		H196.8000031z"/>
	<path fill="#181716" d="M204.1999969,21.1000004v-2.7000008h3.3999939v2.7000008H204.1999969z M204.3000031,36.9000015V23.7999992
		h3.3999939v13.1000023H204.3000031z"/>
	<path fill="#181716" d="M222.6999969,30.1000004c0,1.2000008-0.1000061,2.3000011-0.3000031,3.1000004
		s-0.6000061,1.5999985-1.1999969,2.2000008c-0.3999939,0.4000015-1,0.7999992-1.6999969,1.2000008
		c-0.6999969,0.2999992-1.5,0.5-2.5,0.5s-1.8000031-0.2000008-2.5-0.5s-1.1999969-0.7000008-1.6999969-1.2000008
		c-0.6000061-0.7000008-1-1.4000015-1.1999969-2.2000008s-0.3000031-1.7999992-0.3000031-3.1000004
		c0-1.2000008,0.1000061-2.2000008,0.3000031-3s0.6000061-1.5,1.1999969-2.2000008
		c0.3999939-0.3999996,1-0.7999992,1.6999969-1.2000008s1.5-0.5,2.5-0.5s1.8000031,0.2000008,2.5,0.5
		s1.1999969,0.7000008,1.6999969,1.2000008c0.6000061,0.7000008,1,1.3999996,1.1999969,2.2000008
		C222.6000061,27.8999996,222.6999969,28.8999996,222.6999969,30.1000004z M219.3999939,30.1000004
		c0-0.7000008,0-1.2999992-0.1000061-1.8999996s-0.3000031-1-0.6000061-1.3999996
		c-0.3999939-0.3999996-0.8999939-0.6000004-1.6000061-0.6000004c-0.6000061,0-1.1999969,0.2000008-1.6000061,0.6000004
		c-0.3000031,0.2999992-0.6000061,0.7999992-0.6000061,1.3999996c-0.1000061,0.6000004-0.1000061,1.2000008-0.1000061,1.8999996
		c0,0.7000008,0,1.2999992,0.1000061,1.8999996c0.1000061,0.5999985,0.3000031,1,0.6000061,1.4000015
		C215.8999634,33.8000031,216.3999634,34,217.0999756,34c0.6999969,0,1.1999969-0.2000008,1.6000061-0.5999985
		c0.3000031-0.2999992,0.6000061-0.7999992,0.6000061-1.4000015C219.3000031,31.5,219.3999939,30.7999992,219.3999939,30.1000004z"
		/>
	<path fill="#181716" d="M234.3000031,36.9000015v-8.2000008c0-0.5-0.1000061-0.8999996-0.1999969-1.2000008
		c-0.1000061-0.2999992-0.3000031-0.6000004-0.5-0.7999992c-0.1999969-0.2000008-0.5-0.2999992-0.6999969-0.3999996
		c-0.3000031-0.1000004-0.5-0.1000004-0.8000031-0.1000004s-0.5,0-0.8000031,0.1000004s-0.5,0.2000008-0.6999969,0.3999996
		c-0.1999969,0.2000008-0.3999939,0.3999996-0.5,0.7999992c-0.1000061,0.2999992-0.1999969,0.7000008-0.1999969,1.2000008v8.2000008
		h-3.3999939V23.3999996h3.3000031v1.2000008c0.3999939-0.5,1-0.7999992,1.6000061-1s1.1999969-0.3999996,1.8000031-0.3999996
		c0.6999969,0,1.3000031,0.1000004,1.8000031,0.2999992c0.5,0.2000008,1,0.5,1.3999939,0.8999996
		C237.0000305,25,237.3000183,25.5,237.5000305,26.1999989c0.1999969,0.6000004,0.3000031,1.2999992,0.3000031,2.1000004v8.6000023
		H234.3000031z"/>
</g>
</svg>
